<svg id="Laag_1" data-name="Laag 1" xmlns="http://www.w3.org/2000/svg" viewBox="0 0 200 200" width="200" height="200"><defs><style>.cls-2{fill:#cbcbcb}.cls-3{fill:#ff8c00}.cls-4{fill:#7c7c7c}.cls-5{fill:#e4e4e4}.cls-6{fill:#989898}.cls-7{fill:#ffd38f}.cls-10{fill:#fff}.cls-11{fill:#fa6500}.cls-14{fill:#ff8780}.cls-15{fill:#cf4000}</style><clipPath id="clip-path"><path d="M130 137.53c-.31-6.39-.8-10.46-.8-12.49a11.2 11.2 0 0 1 .92-4.8h-26l-5.83 11.86a24.71 24.71 0 0 0-6.7-4l.6 3.63a8.19 8.19 0 0 1-.9 5.27 6.29 6.29 0 0 1-5.92 3.48c-4.56 0-8.77-5.38-14.83-10-6.06 4.58-10.27 10-14.82 10a6.24 6.24 0 0 1-6.09-7.58l1.24-5.71A34.3 34.3 0 0 0 33.5 138a71.06 71.06 0 0 0 67.53 49 70.35 70.35 0 0 0 9.9-.69c15.36-6.33 19.31-21.64 19.31-38.57 0-3.95-.1-7.32-.24-10.21z" fill="none"/></clipPath></defs><path class="cls-2" d="M193.45 91.42v14.9a6.8 6.8 0 0 1-13.6 0v-14.9a6.8 6.8 0 1 1 13.6 0z"/><path class="cls-3" d="M179.45 84.62h7.2a6.81 6.81 0 0 0-6.8 6.8v14.9a6.8 6.8 0 0 0 6.8 6.79h-7.5a6.8 6.8 0 0 1-6.8-6.79v-14.9a6.81 6.81 0 0 1 6.8-6.8z"/><path class="cls-4" d="M171.94 84.62h7.21a6.81 6.81 0 0 0-6.8 6.8v14.9a6.8 6.8 0 0 0 6.8 6.79h-7.21a6.69 6.69 0 0 1-2.86-.63 6.82 6.82 0 0 1-3.93-6.16v-14.9a6.87 6.87 0 0 1 .36-2.18 6.78 6.78 0 0 1 3.57-4 6.69 6.69 0 0 1 2.86-.62z"/><path class="cls-5" d="M172 113.11q.06 1.4.06 2.79a70.69 70.69 0 0 1-13.05 41l-8.15-26.36H152v-5.72a5.28 5.28 0 0 0 4.85-5.27V118h3.18a10.1 10.1 0 0 0 9-5.52 6.69 6.69 0 0 0 2.86.63z"/><path class="cls-6" d="M169.08 85.26a6.78 6.78 0 0 0-3.57 4h-5.88v19.25h5.88a6.8 6.8 0 0 0 3.57 4 10.1 10.1 0 0 1-9 5.52h-14.76a10.11 10.11 0 0 0 10.11-10.11v-18a10.11 10.11 0 0 0-10.11-10.11h14.75a10.39 10.39 0 0 1 2.24.25 10.11 10.11 0 0 1 6.77 5.2z"/><path class="cls-2" d="M165.5 89.24a6.87 6.87 0 0 0-.36 2.18v14.9a6.76 6.76 0 0 0 .36 2.17h-5.88V89.24z"/><path class="cls-5" d="M160.11 76.48c.77 1.14 1.5 2.31 2.2 3.5a10.39 10.39 0 0 0-2.24-.25h-4.14v-3.25z"/><path class="cls-2" d="M150.85 130.58l8.15 26.36a70.18 70.18 0 0 1-6.75 8.15L150 157.7l-4.47-14.46-3.91-12.66zM156.89 118v1.59a5.28 5.28 0 0 1-4.85 5.27H140a4.18 4.18 0 0 1-.5 0 5.29 5.29 0 0 1-4.79-5.26V118h22.15zM155.93 76.48v3.25H143.1V61.42h12.83v3.25h-3a5.91 5.91 0 0 0 0 11.81z"/><path class="cls-6" d="M174.49 64.67H152.9a5.91 5.91 0 0 0 0 11.81h21.59a5.91 5.91 0 0 0 0-11.81z"/><path class="cls-5" d="M150 157.7l2.28 7.39c-.74.78-1.5 1.53-2.28 2.27z"/><path class="cls-4" d="M150 157.7v9.66a71.25 71.25 0 0 1-8.7 7.07v-17.49l4.23-13.7z"/><path class="cls-6" d="M141.59 130.58l3.91 12.66-4.23 13.7-6.66 21.55a69.38 69.38 0 0 1-10.7 4.66l16.25-52.57z"/><path class="cls-7" d="M141.71 106a4.11 4.11 0 0 1 1.54 3.45c0 6.11-7.48 4.76-11.52 8.58a7.5 7.5 0 0 0-1.6 2.24h-26l5.67-11.48a32.6 32.6 0 0 1 11.66-14.2c4.45-3.06 9.12-4.64 12.59-4.64 4.13 0 7.41 1.93 7.41 5.35a7.13 7.13 0 0 1-.63 2.78 4.47 4.47 0 0 1 2.34 4.1 6 6 0 0 1-1.46 3.82z"/><path class="cls-6" d="M143.1 61.42v18.31h-8a4.37 4.37 0 0 1-4.37-4.37v-9.57a4.37 4.37 0 0 1 4.37-4.37z"/><path class="cls-5" d="M141.27 174.42a69.17 69.17 0 0 1-6.66 4.06l6.66-21.55zM130 137.53c-.31-6.39-.8-10.46-.8-12.49a11.2 11.2 0 0 1 .92-4.8 7.5 7.5 0 0 1 1.6-2.24h3v1.59a5.29 5.29 0 0 0 4.79 5.26v5.73h.63l-16.25 52.57a69.76 69.76 0 0 1-13 3.08c15.36-6.33 19.31-21.64 19.31-38.57.04-3.87-.06-7.24-.2-10.13z"/><path class="cls-4" d="M139.53 130.58v-5.73a4.18 4.18 0 0 0 .5 0h12v5.72h-12.5z"/><path d="M130 137.53c-.31-6.39-.8-10.46-.8-12.49a11.2 11.2 0 0 1 .92-4.8h-26l-5.83 11.86a24.71 24.71 0 0 0-6.7-4l.6 3.63a8.19 8.19 0 0 1-.9 5.27 6.29 6.29 0 0 1-5.92 3.48c-4.56 0-8.77-5.38-14.83-10-6.06 4.58-10.27 10-14.82 10a6.24 6.24 0 0 1-6.09-7.58l1.24-5.71A34.3 34.3 0 0 0 33.5 138a71.06 71.06 0 0 0 67.53 49 70.35 70.35 0 0 0 9.9-.69c15.36-6.33 19.31-21.64 19.31-38.57 0-3.95-.1-7.32-.24-10.21z" fill="#ffbebb"/><path d="M106 61.12a26.15 26.15 0 0 1 .5 5.18 34.46 34.46 0 0 1-1.85 10.83h-.87a6.71 6.71 0 0 1-5.15-6.71c.02-4.34 3.58-8.84 7.37-9.3z" fill="#922300"/><path class="cls-10" d="M105.64 59.56c.15.52.27 1 .38 1.56-3.81.46-7.37 5-7.37 9.3a6.71 6.71 0 0 0 5.15 6.71h-1.61c-6.76 0-9.65-4.37-9.65-8.09 0-5 4.9-9.75 10.75-9.75a10.58 10.58 0 0 1 2.35.27z"/><path class="cls-5" d="M103.44 44.92a8.11 8.11 0 0 1 .13 1.47 12 12 0 0 1-1.5 6.08 18 18 0 0 1 1.61 2.34 19.6 19.6 0 0 1 2 4.75c.15.52.27 1 .38 1.56a26.15 26.15 0 0 1 .5 5.18 34.46 34.46 0 0 1-1.85 10.83l-.06.18c-.23.68-.48 1.36-.75 2 3.67 0 5.44 2.06 5.44 4.19s-1.57 4.09-4.64 4.6c.13 1.12.27 2.26.42 3.39h-6.67A10.31 10.31 0 0 0 105.7 96a65 65 0 0 1 .58 8c0 12.8-6.23 18.31-15.57 18.71l.27 1.63.6 3.69a24.71 24.71 0 0 1 6.7 4l5.85-11.86 5.67-11.48a32.6 32.6 0 0 1 11.66-14.2V79.73h13.61a4.37 4.37 0 0 1-4.37-4.37v-9.57a4.37 4.37 0 0 1 4.37-4.37h11.51a70.76 70.76 0 0 0-43.14-16.5z"/><path class="cls-11" d="M34 92.39A41 41 0 0 0 40.9 107a56.56 56.56 0 0 0 5.64 6.6 70.79 70.79 0 0 0 6 5.42h.06c6.6-3.31 12.68-7.86 14.59-14.81-8.1-4-10.54-9.85-10.54-14.8 0-6.49 4.31-10.14 9.12-10.14 3.53 0 6 1.94 7.8 4.67a65.07 65.07 0 0 0 3.25-11.14c4.83-2.23 8.82-6.26 8.82-12a15.16 15.16 0 0 0-2.47-8.2h18.88a12 12 0 0 0 1.5-6.08 8.11 8.11 0 0 0-.13-1.47c-.84-4.65-5.56-8.82-11.86-8.82C82.05 36.1 72.11 44 64 44a18.5 18.5 0 0 1-5.39-.73 18.39 18.39 0 0 0 1 4.16 17 17 0 0 0-14.15 11.35C36.94 63 32.92 72.43 32.92 82.91a43.86 43.86 0 0 0 .48 6.42q.24 1.56.6 3.06M92.18 131.68a8.19 8.19 0 0 1-.9 5.27 6.29 6.29 0 0 1-5.92 3.48c-4.56 0-8.77-5.38-14.83-10 4.48-3.39 10-6.34 17.37-6.34a21.29 21.29 0 0 1 3.08.23l.6 3.69zM70.53 130.47c-6.06 4.58-10.27 10-14.82 10a6.24 6.24 0 0 1-6.09-7.58l1.24-5.71.64-2.94c.56 0 1.13-.07 1.69-.07 7.36-.04 12.81 2.91 17.34 6.3z"/><path d="M52.62 118.94v.06z" fill="#004472"/><path class="cls-5" d="M52.6 119l-1.13 5.2-.64 2.94A34.3 34.3 0 0 0 33.5 138a71.36 71.36 0 0 1 .5-45.61A41 41 0 0 0 40.9 107a56.56 56.56 0 0 0 5.64 6.6 70.79 70.79 0 0 0 6 5.42z"/><g clip-path="url(#clip-path)"><path class="cls-14" d="M45.46 163.68h14.27v15.15H45.46zM45.46 134.26h14.27v15.15H45.46zM104.3 134.26h14.27v15.15H104.3zM104.3 163.68h14.27v15.15H104.3zM74.88 134.26h14.27v15.15H74.88zM74.88 163.68h14.27v15.15H74.88z"/><path class="cls-15" d="M59.73 119.99h15.15v14.27H59.73z"/><path class="cls-11" d="M89.15 119.99h15.15v14.27H89.15zM30.31 119.99h15.15v14.27H30.31zM118.57 119.99h17.88v14.27h-17.88z"/><path class="cls-15" d="M45.46 119.99h14.27v14.27H45.46zM104.3 119.99h14.27v14.27H104.3z"/><path class="cls-10" d="M74.88 119.99h14.27v14.27H74.88z"/><path class="cls-11" d="M118.57 149.41h17.88v14.27h-17.88zM30.31 149.41h15.15v14.27H30.31zM59.73 149.41h15.15v14.27H59.73zM89.15 149.41h15.15v14.27H89.15z"/><path class="cls-15" d="M45.46 149.41h14.27v14.27H45.46zM104.3 149.41h14.27v14.27H104.3zM74.88 149.41h14.27v14.27H74.88z"/><path class="cls-11" d="M89.15 178.83h15.15v14.27H89.15zM59.73 178.83h15.15v14.27H59.73z"/><path class="cls-15" d="M104.3 178.83h14.27v14.27H104.3zM74.88 178.83h14.27v14.27H74.88z"/></g><path class="cls-5" d="M82.71 174.27a.67.67 0 0 1-.48-.2c-10.08-10.07-17.3-15.74-33.42-22.52a.68.68 0 0 1 .53-1.26c15.9 6.68 23.26 12.28 33.05 22q.21-.66.42-1.38c3.13-10.27 8.35-27.46 17.07-45.34a.7.7 0 0 1 .92-.32.69.69 0 0 1 .31.92c-8.67 17.78-13.87 34.91-17 45.14-.26.87-.51 1.7-.75 2.47a.7.7 0 0 1-.49.47z"/><path class="cls-4" d="M144.05 112.51h-.13a.69.69 0 0 1-.54-.81 8.25 8.25 0 0 0 .16-1.06c.41-4.87-3.86-5.61-5.18-5.72-4.55-.38-8.39 2.24-9.69 4.9a.69.69 0 1 1-1.24-.6c2-4.12 7.19-6 11-5.67 4.31.36 6.77 3.13 6.42 7.21a11.15 11.15 0 0 1-.17 1.22.7.7 0 0 1-.63.53z"/><path class="cls-4" d="M146.25 106a.68.68 0 0 1-.67-.54c-1-4.77-2-7.08-6.6-7.72-3.91-.55-8.47 1.18-10.6 4a.68.68 0 0 1-1 .14.69.69 0 0 1-.13-1c2.4-3.2 7.51-5.16 11.88-4.55 5.67.78 6.79 4.14 7.75 8.8a.68.68 0 0 1-.53.81z"/><path class="cls-3" d="M81.88 69.33a7.79 7.79 0 0 0-6.21-2.76c-1.69 0-3.46.29-5.13.29-4.67 0-6.21-2.58-6.21-7.18v-1.55c0-3.66-.93-6.44-5.2-6.44-2.27 0-4.63.94-7 .94a6.32 6.32 0 0 1-2.53-.46 16.1 16.1 0 0 0-4.2 6.61C37.77 62.59 33.75 70.64 33 79.87a25.55 25.55 0 0 1 5.17-1C47 78.85 39.4 95.46 52 95.46c1.88 0 3.88-.31 5.79-.41a14.65 14.65 0 0 1-1.16-5.72c0-6.49 4.31-10.14 9.12-10.14 3.53 0 6 1.94 7.8 4.67a65.07 65.07 0 0 0 3.25-11.14 18.37 18.37 0 0 0 5.08-3.39z"/><path class="cls-11" d="M49.16 85.37h-.08a.69.69 0 0 1-.61-.76 5.53 5.53 0 0 0 0-.71c0-2.15-2-10.17-8-10.17a22.78 22.78 0 0 0-6.45 1.37.69.69 0 0 1-.41-1.31 23.51 23.51 0 0 1 6.86-1.43c7.11 0 9.35 9 9.35 11.54a8.12 8.12 0 0 1 0 .86.69.69 0 0 1-.66.61zM75.35 77.92c-8 0-12.1-5.37-15.35-9.68-2.36-3.12-4.39-5.82-7.29-5.82a5.82 5.82 0 0 0-1.08.11.69.69 0 0 1-.26-1.35 7 7 0 0 1 1.34-.13c3.59 0 5.92 3.09 8.38 6.36 3.29 4.36 7 9.3 14.68 9.13a.69.69 0 1 1 0 1.37zM59.45 82.49a.7.7 0 0 1-.5-.21 23.32 23.32 0 0 1-3.7-5.53c-1.38-2.62-2.24-4.09-4-4.09a2.47 2.47 0 0 0-.64.09.68.68 0 0 1-.85-.46.68.68 0 0 1 .46-.85 3.68 3.68 0 0 1 1-.16c2.71 0 3.89 2.24 5.26 4.83a21.81 21.81 0 0 0 3.47 5.22.68.68 0 0 1 0 1 .66.66 0 0 1-.5.16z"/><path class="cls-3" d="M90.05 53.15h-.14a.69.69 0 0 1-.53-.82 8.14 8.14 0 0 0 .2-1.73 6.62 6.62 0 0 0-2.28-5 .69.69 0 0 1 0-1 .68.68 0 0 1 1 0 8 8 0 0 1 2.71 6 9 9 0 0 1-.23 2 .68.68 0 0 1-.73.55zM96.85 53.15a.47.47 0 0 1-.17 0 .68.68 0 0 1-.5-.83 8.61 8.61 0 0 0 .27-2.08 5.28 5.28 0 0 0-2-4.36.7.7 0 0 1-.12-1 .68.68 0 0 1 1-.11 6.66 6.66 0 0 1 2.58 5.44 9.84 9.84 0 0 1-.31 2.41.68.68 0 0 1-.75.53z"/><path class="cls-7" d="M109.32 83.52c0-2.13-1.77-4.19-5.44-4.19.27-.66.52-1.34.75-2l.06-.18h-2.48c-6.76 0-9.65-4.37-9.65-8.09 0-5 4.9-9.75 10.75-9.75a10.58 10.58 0 0 1 2.35.26 19.6 19.6 0 0 0-2-4.75 18 18 0 0 0-1.66-2.35H83.19a15.16 15.16 0 0 1 2.47 8.2c0 5.79-4 9.82-8.82 12a65.07 65.07 0 0 1-3.25 11.14c-1.84-2.73-4.27-4.67-7.8-4.67-4.81 0-9.12 3.65-9.12 10.14 0 5 2.44 10.81 10.54 14.8-1.91 7-8 11.5-14.59 14.81v.06l-1.13 5.2c.56 0 1.13-.07 1.69-.07 7.39 0 12.88 3 17.37 6.34 4.48-3.39 10-6.34 17.37-6.34a21.29 21.29 0 0 1 3.08.23l-.27-1.63c9.34-.4 15.57-5.91 15.57-18.71a65 65 0 0 0-.58-8 10.31 10.31 0 0 1-7.25-4.52h6.65c-.15-1.13-.29-2.27-.42-3.39 3.05-.45 4.62-2.53 4.62-4.54z"/><path class="cls-3" d="M94.67 95.69a.68.68 0 0 1-.62-.4.69.69 0 0 1 .34-.91 4.82 4.82 0 0 0 3.17-4.46 6 6 0 0 0-.46-2.2.67.67 0 0 1 .37-.89.69.69 0 0 1 .9.37 7.24 7.24 0 0 1 .56 2.72 6.2 6.2 0 0 1-4 5.71.75.75 0 0 1-.26.06z"/><circle class="cls-3" cx="86.68" cy="84.86" r="1.11"/><circle class="cls-3" cx="92.49" cy="83.31" r="1.11"/><circle class="cls-3" cx="92.34" cy="89.56" r="1.11"/><path class="cls-15" d="M70.84 155.45a.69.69 0 0 1-.69-.69v-24.29a.68.68 0 0 1 .69-.68.67.67 0 0 1 .68.68v24.29a.68.68 0 0 1-.68.69z"/><rect class="cls-11" x="127.64" y="73.07" width="6.28" height="12.56" rx="3.14"/><path class="cls-4" d="M155.43 89.84v18A10.11 10.11 0 0 1 145.32 118h-13.59c4-3.82 11.52-2.47 11.52-8.58a4.11 4.11 0 0 0-1.54-3.45 6 6 0 0 0 1.47-3.77 4.47 4.47 0 0 0-2.34-4.1 7.13 7.13 0 0 0 .63-2.78c0-3.42-3.28-5.35-7.41-5.35-3.47 0-8.14 1.58-12.59 4.64V79.73h23.85a10.11 10.11 0 0 1 10.11 10.11z"/><circle class="cls-2" cx="127.94" cy="85.21" r="1.83"/><circle class="cls-3" cx="136.39" cy="85.21" r="1.83"/></svg>
